<svg height="512" viewBox="0 0 64 64" width="512" xmlns="http://www.w3.org/2000/svg"><g id="_11-eco_house" data-name="11-eco house"><path d="m32.95864 17.36019s2.12136-7.77819-3.53554-13.43503-13.43503-3.53553-13.43503-3.53553-2.12132 7.77817 3.53554 13.435 13.43503 3.53556 13.43503 3.53556z" fill="#95c590"/><path d="m34.54515 17s5.09808 2.83013 9.4282.33013 4.42821-8.33013 4.42821-8.33013-5.09808-2.83013-9.42821-.33013-4.4282 8.33013-4.4282 8.33013z" fill="#7ab574"/><path d="m43.874 11.51416a1.00064 1.00064 0 0 0 -1.35986-.38818l-9 5c-.01208.00671-.02087.01721-.03259.02435l-11.62855-10.83539a.99982.99982 0 1 0 -1.36328 1.46289l12.51028 11.65698v10.56519a1 1 0 0 0 2 0v-11.41162l8.48584-4.71438a.9999.9999 0 0 0 .38816-1.35984z" fill="#708251"/><path d="m24 46h37v18h-37z" fill="#ccc7be"/><path d="m26 48v16h-21v-16l8-16z" fill="#f6f0e5"/><path d="m50 24h-37l-12 24h4l8-16 9 16h4 37z" fill="#9dc8d4"/><path d="m26 48-13-24h37l13 24z" fill="#a8d7e4"/><path d="m28 44-9-16h29l9 16z" fill="#95c590"/><path d="m9 52h10v12h-10z" fill="#95c590"/><g fill="#7ab574"><path d="m34 53h6v6h-6z"/><path d="m48 53h6v6h-6z"/><path d="m45.191 37h7.872l-1.125-2h-7.847l-3.85-7h-2.282l3.85 7h-7.718l-3.85-7h-2.282l3.85 7h-8.871l1.125 2h8.846l3.85 7h2.282l-3.85-7h7.718l3.85 7h2.282z"/></g></g></svg>