<svg viewBox="0 0 24 24" xmlns="http://www.w3.org/2000/svg"><g id="Layer_2" data-name="Layer 2"><path d="m19.291 12.187a.24828.24828 0 0 1 0-.374l.001-.00048 2.249-1.97657a1.75613 1.75613 0 0 0 .35839-2.189l-1.17966-2.04343a1.75255 1.75255 0 0 0 -2.07618-.78321l-2.835.959a.24126.24126 0 0 1 -.20507-.02051.24862.24862 0 0 1 -.12012-.16748l-.58692-2.93506a1.75552 1.75552 0 0 0 -1.71675-1.40626h-2.35938a1.75547 1.75547 0 0 0 -1.71679 1.40674l-.58692 2.93457a.24862.24862 0 0 1 -.12012.16748.24321.24321 0 0 1 -.20507.02051l-2.835-.959a1.7529 1.7529 0 0 0 -2.07614.7827l-1.17968 2.04446a1.75607 1.75607 0 0 0 .35941 2.18945l2.249 1.97609a.2479.2479 0 0 1 -.001.37452l-2.249 1.97654a1.75613 1.75613 0 0 0 -.35839 2.189l1.17968 2.04345a1.75255 1.75255 0 0 0 2.07618.78321l2.835-.959a.243.243 0 0 1 .20507.02051.24862.24862 0 0 1 .12012.16748l.58692 2.93506a1.75552 1.75552 0 0 0 1.71673 1.40623h2.35938a1.75547 1.75547 0 0 0 1.71679-1.40674l.58692-2.93457a.24862.24862 0 0 1 .12012-.16748.245.245 0 0 1 .20507-.02051l2.835.959a1.7529 1.7529 0 0 0 2.07618-.78272l1.17968-2.04443a1.75607 1.75607 0 0 0 -.35945-2.18946z" fill="#0db561"/><circle cx="12" cy="12" fill="#0db561" r="8.25"/><circle cx="12" cy="12" fill="#fff" r="4.75"/><g fill="#1a352b"><path d="m13.17969 22.75h-2.35938a1.75552 1.75552 0 0 1 -1.71679-1.40625l-.32813-1.645a.28619.28619 0 0 0 -.16992-.18652 8.23874 8.23874 0 0 1 -1.418-.814.2889.2889 0 0 0 -.24805-.0542l-1.583.53565a1.75373 1.75373 0 0 1 -2.07618-.78321l-1.17965-2.04347a1.75489 1.75489 0 0 1 .35937-2.189l1.25781-1.10595a.27777.27777 0 0 0 .07715-.23877 7.49483 7.49483 0 0 1 0-1.63868.279.279 0 0 0 -.07715-.23925l-1.25777-1.10492a1.7551 1.7551 0 0 1 -.35937-2.189l1.17964-2.04443a1.7529 1.7529 0 0 1 2.07618-.78272l1.583.53565a.27206.27206 0 0 0 .24805-.05469 8.24037 8.24037 0 0 1 1.419-.81348.28731.28731 0 0 0 .16894-.187l.32813-1.644a1.75547 1.75547 0 0 1 1.71674-1.40676h2.35938a1.75552 1.75552 0 0 1 1.71679 1.40625l.32813 1.645a.28619.28619 0 0 0 .16992.18652 8.23874 8.23874 0 0 1 1.418.814.29184.29184 0 0 0 .248.0542l1.583-.53565a1.75255 1.75255 0 0 1 2.07618.78321l1.1797 2.04347a1.75489 1.75489 0 0 1 -.35937 2.189l-1.25781 1.106a.27777.27777 0 0 0 -.07715.23877 7.49483 7.49483 0 0 1 0 1.63868.27814.27814 0 0 0 .07715.23877l1.25777 1.10535a1.7551 1.7551 0 0 1 .35937 2.189l-1.17964 2.04443a1.75467 1.75467 0 0 1 -2.07618.78272l-1.583-.53565a.28416.28416 0 0 0 -.248.05469 8.24037 8.24037 0 0 1 -1.419.81348.28731.28731 0 0 0 -.16894.187l-.32813 1.644a1.75547 1.75547 0 0 1 -1.71679 1.40676zm-6.16992-5.61768a1.80659 1.80659 0 0 1 1.05078.34571 6.69787 6.69787 0 0 0 1.15918.666 1.77947 1.77947 0 0 1 1.02636 1.26026l.32813 1.645a.25149.25149 0 0 0 .24609.20068h2.35938a.25144.25144 0 0 0 .24609-.20117l.32813-1.644a1.7803 1.7803 0 0 1 1.02539-1.2608 6.69982 6.69982 0 0 0 1.16015-.66552 1.76088 1.76088 0 0 1 1.60157-.25538l1.583.53565a.24967.24967 0 0 0 .29688-.11133l1.17969-2.04442a.251.251 0 0 0 -.05079-.313l-1.25781-1.105v-.00049a1.77585 1.77585 0 0 1 -.5791-1.52734 5.83843 5.83843 0 0 0 0-1.31446 1.77585 1.77585 0 0 1 .5791-1.52734l1.25781-1.106a.25078.25078 0 0 0 .05079-.313l-1.17969-2.04337a.25182.25182 0 0 0 -.29688-.11182l-1.583.53565a1.76061 1.76061 0 0 1 -1.60157-.25483 6.69787 6.69787 0 0 0 -1.15918-.666 1.77947 1.77947 0 0 1 -1.02636-1.2603l-.32813-1.645a.25149.25149 0 0 0 -.24609-.2007h-2.35938a.25144.25144 0 0 0 -.24609.20117l-.32813 1.644a1.7803 1.7803 0 0 1 -1.02539 1.26083 6.69982 6.69982 0 0 0 -1.16015.66552 1.7563 1.7563 0 0 1 -1.60155.25534l-1.583-.53565a.25248.25248 0 0 0 -.29688.11133l-1.17971 2.04446a.251.251 0 0 0 .05079.313l1.2578 1.10494a1.77732 1.77732 0 0 1 .5791 1.52783 5.83843 5.83843 0 0 0 0 1.31446 1.77585 1.77585 0 0 1 -.5791 1.52734l-1.25781 1.106a.25078.25078 0 0 0 -.05079.313l1.1797 2.04343a.24918.24918 0 0 0 .29688.11182l1.583-.53565a1.70951 1.70951 0 0 1 .55079-.09085z"/><path d="m12 16.75a4.75037 4.75037 0 1 1 3.5625-1.6084.75.75 0 1 1 -1.125-.99219 3.24984 3.24984 0 1 0 -2.4375 1.10059.75.75 0 0 1 0 1.5z"/></g></g></svg>